<svg width="100" height="100" viewBox="0 0 100 100" fill="none" xmlns="http://www.w3.org/2000/svg">
<path d="M44.2158 42.3776L47.9269 53.9996H35.8144L39.4553 42.3776C40.2958 39.5771 40.9956 36.2866 41.6953 33.5561H41.8353C42.5357 36.2868 43.3054 39.5071 44.2158 42.3776ZM99.1253 16.7852V82.6726C99.1253 91.7321 91.713 99.1445 82.6535 99.1445H16.7663C7.70675 99.1443 0.294434 91.7319 0.294434 82.6724V16.7852C0.294434 7.72567 7.70675 0.313354 16.7663 0.313354H82.6536C91.713 0.313354 99.1253 7.72567 99.1253 16.7852ZM62.9091 73.8824L47.576 26.6956H36.5847L21.4624 73.8824H30.3539L34.4149 60.5103H49.3971L53.668 73.8824H62.9091ZM77.4676 39.7871H68.786V73.8824H77.4676V39.7871ZM77.9573 30.2659C77.8873 27.6054 76.0674 25.5754 73.1266 25.5754C70.2561 25.5754 68.2961 27.6054 68.2961 30.2659C68.2961 32.8566 70.1861 34.8866 73.0566 34.8866C76.0672 34.8864 77.9573 32.8564 77.9573 30.2659Z" fill="#FBFCF8"/>
</svg>
