<svg width="68" height="100" viewBox="0 0 68 100" fill="none" xmlns="http://www.w3.org/2000/svg">
<path d="M59.0428 34.1722C62.429 32.0789 65.04 28.9382 66.4798 25.2266C67.9195 21.5151 68.1094 17.4352 67.0207 13.606C65.932 9.77671 63.624 6.40704 60.4469 4.00815C57.2698 1.60927 53.397 0.31207 49.416 0.313355H18.3022C14.3212 0.31207 10.4484 1.60927 7.27131 4.00815C4.09422 6.40704 1.78625 9.77671 0.697515 13.606C-0.391219 17.4352 -0.201299 21.5151 1.23846 25.2266C2.67823 28.9382 5.28926 32.0789 8.67546 34.1722C6.02316 35.8107 3.83381 38.1001 2.3154 40.8229C0.796994 43.5457 -4.49283e-05 46.6116 1.89947e-09 49.7291C4.49321e-05 52.8467 0.797172 55.9125 2.31566 58.6353C3.83414 61.3581 6.02356 63.6474 8.67591 65.2858C5.96463 66.9638 3.73885 69.3211 2.21913 72.1241C0.699413 74.9272 -0.0614991 78.0787 0.0117904 81.2663C0.08508 84.454 0.990029 87.5672 2.63697 90.2974C4.28391 93.0277 6.61567 95.2802 9.4012 96.8318C12.1867 98.3834 15.3293 99.1802 18.5176 99.1432C21.7059 99.1063 24.8293 98.2369 27.5781 96.6212C30.327 95.0055 32.6059 92.6996 34.1892 89.932C35.7724 87.1643 36.605 84.031 36.6044 80.8425V62.7827C38.4406 64.5867 40.6368 65.9828 43.0494 66.8799C45.4621 67.7769 48.0369 68.1547 50.6056 67.9886C53.1742 67.8225 55.6789 67.1161 57.9559 65.9157C60.2329 64.7153 62.2309 63.0479 63.8194 61.0225C65.4079 58.9971 66.5511 56.6592 67.1742 54.1618C67.7973 51.6643 67.8863 49.0634 67.4355 46.5292C66.9847 43.995 66.0041 41.5844 64.5579 39.4551C63.1116 37.3257 61.2323 35.5256 59.0428 34.1722ZM62.2276 18.6156C62.2237 22.0107 60.8739 25.2657 58.4741 27.6673C56.0742 30.0688 52.82 31.4208 49.4249 31.4269L49.416 31.4267L49.3984 31.4271L36.6044 31.4267V5.80402H49.416C52.8127 5.80783 56.0691 7.15884 58.4709 9.56065C60.8727 11.9625 62.2238 15.2189 62.2276 18.6156ZM5.49067 18.6156C5.49448 15.2189 6.84548 11.9625 9.24729 9.56065C11.6491 7.15884 14.9056 5.80783 18.3022 5.80402H31.1138V31.4267H18.3022L18.2935 31.4269C14.8984 31.4208 11.6442 30.0688 9.24428 27.6673C6.84435 25.2658 5.49452 22.0107 5.49067 18.6156ZM5.49067 49.7289C5.4945 46.3338 6.84433 43.0787 9.24426 40.6771C11.6442 38.2756 14.8984 36.9236 18.2935 36.9176L18.3022 36.9178L31.1138 36.9175V62.54L18.3022 62.5405C14.9056 62.5367 11.6491 61.1856 9.24729 58.7838C6.84548 56.382 5.49448 53.1256 5.49067 49.7289ZM18.3022 93.6538C16.6189 93.6552 14.9518 93.3249 13.3962 92.6817C11.8406 92.0385 10.427 91.095 9.23624 89.9053C8.04545 88.7155 7.10081 87.3027 6.45631 85.7476C5.8118 84.1926 5.48007 82.5258 5.48007 80.8425C5.48007 79.1591 5.8118 77.4923 6.45631 75.9373C7.10081 74.3822 8.04545 72.9694 9.23624 71.7796C10.427 70.5899 11.8406 69.6464 13.3962 69.0032C14.9518 68.36 16.6189 68.0297 18.3022 68.0311L31.1138 68.0308V80.8425C31.1099 84.2391 29.7589 87.4955 27.3571 89.8973C24.9553 92.299 21.6989 93.65 18.3022 93.6538ZM49.416 62.5405C46.0204 62.5395 42.7641 61.1905 40.3625 58.7899C37.961 56.3893 36.6107 53.1336 36.6084 49.7379C36.606 46.3423 37.9518 43.0847 40.3501 40.6808C42.7483 38.2769 46.0027 36.9235 49.3984 36.9178H49.416L49.4247 36.9176C52.8203 36.9221 56.0753 38.2744 58.4744 40.6775C60.8735 43.0805 62.2204 46.3377 62.2193 49.7334C62.2181 53.129 60.869 56.3853 58.4682 58.7867C56.0675 61.1882 52.8116 62.5383 49.416 62.5405Z" fill="#FBFCF8"/>
</svg>
