<svg width="95" height="95" viewBox="0 0 95 95" fill="none" xmlns="http://www.w3.org/2000/svg">
<path d="M0.156738 0H94.1668V94.0101H0.156738V0ZM86.4658 71.5887C85.7803 67.2995 82.9874 63.6957 74.7028 60.3349C71.8198 58.9835 68.6157 58.0434 67.6638 55.8694C67.3073 54.5768 67.2525 53.8717 67.4836 53.1079C68.0712 50.5774 71.0677 49.8175 73.418 50.5226C74.9457 50.9926 76.3558 52.1678 77.2411 54.048C81.2914 51.4 81.2913 51.4 84.1156 49.6412C83.058 47.9961 82.5331 47.2871 81.8202 46.5859C79.3524 43.8244 76.066 42.4142 70.7191 42.5356L67.9576 42.8843C65.3096 43.5306 62.787 44.9407 61.2594 46.8209C56.7939 51.8779 58.0826 60.6913 63.4882 64.3342C68.835 68.3297 76.6535 69.2071 77.6524 72.9714C78.5925 77.5544 74.2445 79.0233 69.9514 78.4945C66.7746 77.7894 65.0159 76.1991 63.0769 73.2613L55.9086 77.3781C56.7312 79.2583 57.6713 80.077 59.0815 81.7222C65.8972 88.6006 82.9365 88.248 85.9958 77.7894C86.1094 77.4369 86.9359 75.0279 86.2856 71.3262L86.4658 71.5887ZM51.2786 43.2094H42.473C42.473 50.8007 42.4378 58.345 42.4378 65.9481C42.4378 70.7739 42.6845 75.2041 41.8972 76.5673C40.6046 79.2662 37.275 78.9215 35.7631 78.4475C34.2119 77.6797 33.4246 76.6221 32.5119 75.0984C32.2651 74.6871 32.081 74.3306 32.0144 74.3306L24.8657 78.7374C26.0604 81.2051 27.8035 83.3282 30.0519 84.6796C33.4011 86.6773 37.9018 87.3236 42.614 86.266C45.6811 85.3807 48.3251 83.5593 49.7079 80.739C51.7056 77.0961 51.2825 72.6306 51.263 67.6324C51.31 59.5867 51.263 51.5371 51.263 43.4287L51.2786 43.2094Z" fill="#FBFCF8"/>
</svg>
