<svg width="88" height="99" viewBox="0 0 88 99" fill="none" xmlns="http://www.w3.org/2000/svg">
<path d="M44.1687 98.8311C42.8548 98.8311 41.5212 98.4781 40.3641 97.8113L28.264 90.6532C26.4597 89.6334 27.3422 89.2804 27.9306 89.0843C30.3428 88.241 30.833 88.0645 33.4021 86.5937C33.6767 86.4368 34.0297 86.4956 34.3042 86.6721L43.6 92.1829C43.9334 92.379 44.4041 92.379 44.7178 92.1829L80.9399 71.2772C81.2733 71.0811 81.489 70.6889 81.489 70.2967V28.4854C81.489 28.0736 81.2733 27.7009 80.9203 27.4852L44.7178 6.5992C44.3844 6.40309 43.9334 6.40309 43.6 6.5992L7.41716 27.5048C7.06416 27.7009 6.84843 28.0932 6.84843 28.505V70.2967C6.84843 70.6889 7.06416 71.0811 7.41716 71.2576L17.3405 76.9841C22.7336 79.6709 26.0283 76.5134 26.0283 73.3168V32.0547C26.0283 31.4663 26.4989 31.0153 27.0873 31.0153H31.6763C32.2451 31.0153 32.7353 31.4663 32.7353 32.0547V73.3364C32.7353 80.5142 28.8131 84.6325 22.008 84.6325C19.9096 84.6325 18.2622 84.6325 13.6732 82.3576L4.1813 76.8861C1.82794 75.5329 0.376709 73.003 0.376709 70.2771V28.4854C0.376709 25.779 1.82794 23.2296 4.1813 21.8764L40.3641 0.970759C42.6586 -0.323586 45.6984 -0.323586 47.9733 0.970759L84.1954 21.896C86.5487 23.2492 87.9999 25.779 87.9999 28.505V70.2967C87.9999 73.003 86.5487 75.5329 84.1954 76.9057L47.9733 97.8113C46.8162 98.4781 45.5023 98.8311 44.1687 98.8311ZM73.4091 57.6278C73.4091 49.8029 68.1141 47.7241 56.9945 46.2532C45.7376 44.7628 44.6002 43.9979 44.6002 41.37C44.6002 39.1932 45.5611 36.2907 53.8959 36.2907C61.3286 36.2907 64.0742 37.8988 65.2116 42.9193C65.3097 43.39 65.7411 43.743 66.2314 43.743H70.9381C71.2323 43.743 71.5068 43.6253 71.703 43.4096C71.8991 43.1939 71.9971 42.8997 71.9775 42.6055C71.2519 33.9569 65.5058 29.9366 53.8959 29.9366C43.5608 29.9366 37.4028 34.2903 37.4028 41.6054C37.4028 49.5283 43.5412 51.7248 53.4449 52.7053C65.3097 53.8624 66.2314 55.6078 66.2314 57.9416C66.2314 61.9815 62.9759 63.7073 55.3471 63.7073C45.7572 63.7073 43.6588 61.2951 42.9528 56.5295C42.8744 56.0197 42.4429 55.647 41.9134 55.647H37.2263C36.638 55.647 36.1869 56.1177 36.1869 56.6864C36.1869 62.7855 39.5012 70.0613 55.3668 70.0613C66.8198 70.0417 73.4091 65.5115 73.4091 57.6278Z" fill="#FBFCF8"/>
</svg>
